# xmcd CD database file
#
# Track frame offsets:
#	150
#	16245
#	32787
#	51493
#	62823
#	79032
#	95943
#	109187
#
# Disc length: 1633 seconds
#
# Revision: 1
# Processed by: cddbd v1.5.2PL0 Copyright (c) Steve Scherf et al.
# Submitted via: CDex 1.79
#
DISCID=6a065f08
DTITLE=The Wrights - The Wrights
DYEAR=2007
DGENRE=Country
TTITLE0=Rewind
TTITLE1=Do You Still
TTITLE2=Planting Flowers
TTITLE3=Home Sweet Highway
TTITLE4=A Love Like That
TTITLE5=True Love Is A Golden Ring
TTITLE6=You`re The Kind Of Trouble
TTITLE7=You Were Made For Me
EXTD=YEAR: 2007
EXTT0=
EXTT1=
EXTT2=
EXTT3=
EXTT4=
EXTT5=
EXTT6=
EXTT7=
PLAYORDER=
